<?xml version="1.0" encoding="UTF-8" standalone="no"?>
<svg xmlns="http://www.w3.org/2000/svg" viewBox="0 0 1500 900" width="1500" height="900">
  <defs>
    <pattern id="grid2" width="20" height="20" patternUnits="userSpaceOnUse">
      <path d="M 20 0 L 0 0 0 20" fill="none" stroke="#f0f0f0" stroke-width="0.5"/>
    </pattern>
    <marker id="arrR" viewBox="0 0 10 10" refX="9" refY="5" markerWidth="6" markerHeight="6" orient="auto">
      <path d="M 0 0 L 10 5 L 0 10 z" fill="#444444"/>
    </marker>
    <marker id="arrB" viewBox="0 0 10 10" refX="9" refY="5" markerWidth="6" markerHeight="6" orient="auto">
      <path d="M 0 0 L 10 5 L 0 10 z" fill="#0066CC"/>
    </marker>
    <marker id="arrRed" viewBox="0 0 10 10" refX="9" refY="5" markerWidth="6" markerHeight="6" orient="auto">
      <path d="M 0 0 L 10 5 L 0 10 z" fill="#CC0000"/>
    </marker>
    <marker id="arrGrn" viewBox="0 0 10 10" refX="9" refY="5" markerWidth="6" markerHeight="6" orient="auto">
      <path d="M 0 0 L 10 5 L 0 10 z" fill="#008000"/>
    </marker>
  </defs>
  <rect x="0" y="0" width="1500" height="900" fill="white"/>
  <rect x="0" y="0" width="1500" height="900" fill="none" stroke="#2a2a2a" stroke-width="3"/>
  <rect x="20" y="20" width="1460" height="860" fill="none" stroke="#2a2a2a" stroke-width="1"/>
  <rect x="40" y="50" width="1420" height="780" fill="url(#grid2)"/>

  <!-- Header -->
  <rect x="40" y="50" width="1100" height="60" fill="#1f3a5f"/>
  <text x="590" y="85" text-anchor="middle" font-family="Arial" font-size="20" font-weight="bold" fill="white">
    Electrical Single-Line Diagram
  </text>
  <text x="590" y="100" text-anchor="middle" font-family="Arial" font-size="10" fill="#aaccff">
    DAT-WATER-PLC-001 | Rev 0.3 | 2026-07-18 | Sheet 1 of 1
  </text>

  <!-- Section 1: Supply -->
  <rect x="50" y="120" width="300" height="200" fill="#ffe6e6" stroke="#CC0000" stroke-width="1.5" rx="4"/>
  <text x="60" y="142" font-family="Arial" font-size="12" font-weight="bold" fill="#CC0000">1. SUPPLY</text>

  <!-- Mains -->
  <rect x="60" y="155" width="80" height="30" fill="#CC0000" stroke="#880000" stroke-width="1.5" rx="3"/>
  <text x="100" y="175" text-anchor="middle" font-family="Arial" font-size="11" font-weight="bold" fill="white">220V AC</text>
  <text x="100" y="188" text-anchor="middle" font-family="Arial" font-size="8" fill="white">50 Hz</text>
  <!-- L/N/PE labels -->
  <text x="70" y="170" font-family="Arial" font-size="9" fill="white" font-weight="bold">L</text>
  <text x="85" y="170" font-family="Arial" font-size="9" fill="white" font-weight="bold">N</text>
  <text x="100" y="170" font-family="Arial" font-size="9" fill="white" font-weight="bold">E</text>
  <!-- Arrow down -->
  <line x1="100" y1="188" x2="100" y2="210" stroke="#CC0000" stroke-width="2" marker-end="url(#arrRed)"/>
  <!-- Earth spike note -->
  <rect x="60" y="210" width="180" height="40" fill="#fffbe6" stroke="#806600" stroke-width="1" rx="3"/>
  <text x="70" y="225" font-family="Arial" font-size="8" font-weight="bold" fill="#806600">EARTH SPIKE REQUIRED</text>
  <text x="70" y="237" font-family="Arial" font-size="7" fill="#333">1.2m galv. rod | ≤30Ω | by lic. electrician</text>
  <text x="70" y="247" font-family="Arial" font-size="7" fill="#333">6mm² green/yellow bond to pool DB earth</text>

  <!-- Arrow to pool DB -->
  <line x1="160" y1="175" x2="200" y2="175" stroke="#CC0000" stroke-width="2" marker-end="url(#arrRed)"/>

  <!-- Pool Sub-DB (existing) -->
  <rect x="200" y="150" width="140" height="90" fill="#eee" stroke="#888" stroke-width="1.5" rx="3"/>
  <text x="270" y="168" text-anchor="middle" font-family="Arial" font-size="10" font-weight="bold">Pool Sub-DB</text>
  <text x="270" y="180" text-anchor="middle" font-family="Arial" font-size="8">EXISTING</text>
  <text x="270" y="193" text-anchor="middle" font-family="Arial" font-size="7" fill="#666">60A main | WiFi switch</text>
  <text x="270" y="205" text-anchor="middle" font-family="Arial" font-size="7" fill="#666">Pool pump circuit</text>
  <!-- MCB-01 10A new -->
  <rect x="215" y="210" width="60" height="24" fill="#ffcc00" stroke="#cc9900" stroke-width="1.5" rx="2"/>
  <text x="245" y="223" text-anchor="middle" font-family="Arial" font-size="8" font-weight="bold">10A NEW</text>
  <text x="245" y="233" text-anchor="middle" font-family="Arial" font-size="7" fill="#333">C-curve 6kA</text>

  <!-- Section 2: Sub-DB -->
  <rect x="50" y="335" width="340" height="280" fill="#e8f4f8" stroke="#1f3a5f" stroke-width="1.5" rx="4"/>
  <text x="60" y="357" font-family="Arial" font-size="12" font-weight="bold" fill="#1f3a5f">2. SUB-DISTRIBUTION</text>
  <text x="60" y="370" font-family="Arial" font-size="8" fill="#555">Hammond RP1465C Enclosure | IP65</text>

  <!-- Cable run -->
  <line x1="245" y1="234" x2="245" y2="290" stroke="#CC0000" stroke-width="2"/>
  <line x1="245" y1="290" x2="290" y2="290" stroke="#CC0000" stroke-width="2"/>
  <text x="265" y="287" font-family="Arial" font-size="8" fill="#CC0000">4mm² 3-core TPS</text>
  <text x="265" y="297" font-family="Arial" font-size="7" fill="#CC6600">20mm PVC conduit UV-stable</text>
  <!-- Arrow down to DIN rail -->
  <line x1="290" y1="290" x2="290" y2="390" stroke="#CC0000" stroke-width="2"/>
  <text x="295" y="340" font-family="Arial" font-size="8" fill="#CC0000">4mm²</text>

  <!-- DIN rail (horizontal line) -->
  <line x1="70" y1="390" x2="370" y2="390" stroke="#2a2a2a" stroke-width="6"/>

  <!-- Earth bar -->
  <rect x="70" y="410" width="50" height="22" fill="#DAA520" stroke="#B8860B" stroke-width="1.5" rx="2"/>
  <text x="95" y="423" text-anchor="middle" font-family="Arial" font-size="7" font-weight="bold">Earth Bar</text>
  <text x="95" y="432" text-anchor="middle" font-family="Arial" font-size="6">Brass 6-way</text>

  <!-- MCB-02 6A (well pump) -->
  <rect x="130" y="395" width="35" height="55" fill="#ffcc00" stroke="#cc9900" stroke-width="1.5" rx="2"/>
  <line x1="147" y1="400" x2="147" y2="408" stroke="#2a2a2a" stroke-width="1"/>
  <text x="147" y="422" text-anchor="middle" font-family="Arial" font-size="8" font-weight="bold">6A</text>
  <text x="147" y="434" text-anchor="middle" font-family="Arial" font-size="6">C-krom</text>
  <text x="200" y="420" font-family="Arial" font-size="8" fill="#333">Well pump feed</text>

  <!-- MCB-03 3A (12V PSU) -->
  <rect x="175" y="395" width="35" height="55" fill="#ffcc00" stroke="#cc9900" stroke-width="1.5" rx="2"/>
  <text x="192" y="422" text-anchor="middle" font-family="Arial" font-size="8" font-weight="bold">3A</text>
  <text x="192" y="434" text-anchor="middle" font-family="Arial" font-size="6">C-krom</text>
  <text x="245" y="420" font-family="Arial" font-size="8" fill="#333">12V PSU feed</text>

  <!-- MCB-04 2A DC (pump rail) — CRITICAL note -->
  <rect x="220" y="395" width="35" height="55" fill="#ff4444" stroke="#cc0000" stroke-width="2" rx="2"/>
  <text x="237" y="418" text-anchor="middle" font-family="Arial" font-size="8" font-weight="bold" fill="white">2A DC</text>
  <text x="237" y="430" text-anchor="middle" font-family="Arial" font-size="5" fill="#ffaaaa">MUST be</text>
  <text x="237" y="440" text-anchor="middle" font-family="Arial" font-size="5" fill="#ffaaaa">DC-rated</text>
  <text x="295" y="415" font-family="Arial" font-size="8" fill="#CC0000" font-weight="bold">BDD pump rail 12V</text>
  <text x="295" y="427" font-family="Arial" font-size="7" fill="#666">CRITICAL: DC arcs don't</text>
  <text x="295" y="437" font-family="Arial" font-size="7" fill="#666">self-extinguish with AC MCB</text>

  <!-- Section 3: Power Supplies -->
  <rect x="405" y="120" width="280" height="280" fill="#fffbe6" stroke="#806600" stroke-width="1.5" rx="4"/>
  <text x="415" y="142" font-family="Arial" font-size="12" font-weight="bold" fill="#806600">3. POWER SUPPLIES</text>

  <!-- LM50-23B12R2S (Mornsun) -->
  <rect x="415" y="155" width="120" height="70" fill="#1f3a5f" stroke="#0d1f30" stroke-width="1.5" rx="3"/>
  <text x="475" y="175" text-anchor="middle" font-family="Arial" font-size="10" font-weight="bold" fill="white">MORNSUN</text>
  <text x="475" y="190" text-anchor="middle" font-family="Arial" font-size="9" fill="#aaccff">LM50-23B12R2S</text>
  <text x="475" y="204" text-anchor="middle" font-family="Arial" font-size="8" fill="#aaccff">50W | 12V/4.2A</text>
  <text x="475" y="216" text-anchor="middle" font-family="Arial" font-size="7" fill="#88aacc">85-305VAC | 4kVAC</text>
  <!-- Wire from MCB-03 -->
  <line x1="210" y1="412" x2="415" y2="190" stroke="#CC0000" stroke-width="1.5" stroke-dasharray="4,2"/>
  <text x="310" y="183" font-family="Arial" font-size="8" fill="#CC0000">L from MCB-03 3A</text>

  <!-- 12V busbar -->
  <rect x="545" y="155" width="20" height="140" fill="#CC0000" stroke="#880000" stroke-width="1.5"/>
  <text x="510" y="230" font-family="Arial" font-size="9" fill="#CC0000" transform="rotate(-90,510,230)">+12V BUSBAR</text>
  <!-- Connect PSU out to busbar -->
  <line x1="535" y1="190" x2="545" y2="190" stroke="#CC0000" stroke-width="2"/>

  <!-- LM2596 (Zun has) -->
  <rect x="415" y="235" width="120" height="55" fill="#CC6600" stroke="#993300" stroke-width="1.5" rx="3"/>
  <text x="475" y="253" text-anchor="middle" font-family="Arial" font-size="10" font-weight="bold" fill="white">LM2596S</text>
  <text x="475" y="268" text-anchor="middle" font-family="Arial" font-size="9" fill="#ffe0b0">Buck 12V → 5V / 2A</text>
  <text x="475" y="282" text-anchor="middle" font-family="Arial" font-size="8" fill="#ffe0b0">ZUN HAS | Set to 5.0V</text>
  <!-- Connect to busbar -->
  <line x1="545" y1="260" x2="535" y2="260" stroke="#FF8800" stroke-width="2"/>
  <!-- 5V busbar -->
  <rect x="545" y="235" width="20" height="55" fill="#FF8800" stroke="#cc5500" stroke-width="1.5"/>
  <text x="520" y="267" font-family="Arial" font-size="9" fill="#FF8800" transform="rotate(-90,520,267)">+5V RAIL</text>

  <!-- 3.3V from ESP32 on-board LDO -->
  <rect x="415" y="300" width="120" height="40" fill="#2e5e2e" stroke="#1a3a1a" stroke-width="1.5" rx="3"/>
  <text x="475" y="316" text-anchor="middle" font-family="Arial" font-size="10" font-weight="bold" fill="white">ESP32 LDO</text>
  <text x="475" y="330" text-anchor="middle" font-family="Arial" font-size="8" fill="#aaffaa">3.3V on-board | 500mA</text>
  <!-- GND bar -->
  <rect x="415" y="350" width="150" height="22" fill="#888" stroke="#555" stroke-width="1"/>
  <text x="490" y="365" text-anchor="middle" font-family="Arial" font-size="9" fill="white">GND RAIL</text>

  <!-- Section 4: Controller -->
  <rect x="700" y="120" width="420" height="495" fill="#f0f8f0" stroke="#1f3a5f" stroke-width="1.5" rx="4"/>
  <text x="710" y="142" font-family="Arial" font-size="12" font-weight="bold" fill="#1f3a5f">4. ESP32-C6 CONTROLLER</text>

  <!-- ESP32 block -->
  <rect x="720" y="155" width="200" height="100" fill="#1f3a5f" stroke="#0d1f30" stroke-width="2" rx="5"/>
  <text x="820" y="178" text-anchor="middle" font-family="Arial" font-size="14" font-weight="bold" fill="white">ESP32-C6</text>
  <text x="820" y="193" text-anchor="middle" font-family="Arial" font-size="10" fill="#aaccff">DevKitC-1 N16R8</text>
  <text x="820" y="208" text-anchor="middle" font-family="Arial" font-size="9" fill="#88aacc">8MB flash | WiFi 6 | BLE 5</text>
  <text x="820" y="222" text-anchor="middle" font-family="Arial" font-size="8" fill="#88aacc">USB-C programming</text>

  <!-- 5V to ESP32 (from LM2596) -->
  <line x1="720" y1="200" x2="650" y2="260" stroke="#FF8800" stroke-width="1.5"/>
  <text x="670" y="220" font-family="Arial" font-size="8" fill="#FF8800">+5V</text>

  <!-- Relay (GPIO18) -->
  <rect x="940" y="155" width="160" height="70" fill="#eee" stroke="#888" stroke-width="1.5" rx="3"/>
  <text x="1020" y="175" text-anchor="middle" font-family="Arial" font-size="10" font-weight="bold">HL-52S Relay</text>
  <text x="1020" y="190" text-anchor="middle" font-family="Arial" font-size="8">GPIO18 → Coil IN</text>
  <text x="1020" y="204" text-anchor="middle" font-family="Arial" font-size="8">5V coil | 10A contacts</text>
  <text x="1020" y="218" text-anchor="middle" font-family="Arial" font-size="8" fill="#CC0000">→ Well Pump 220V AC</text>
  <!-- GPIO18 to relay -->
  <line x1="920" y1="190" x2="940" y2="190" stroke="#0066CC" stroke-width="1.5"/>
  <text x="930" y="185" font-family="Arial" font-size="7" fill="#0066CC">GPIO18</text>

  <!-- MOSFET AO3400 (GPIO15) -->
  <rect x="940" y="235" width="160" height="70" fill="#eee" stroke="#888" stroke-width="1.5" rx="3"/>
  <text x="1020" y="255" text-anchor="middle" font-family="Arial" font-size="10" font-weight="bold">AO3400A N-MOSFET</text>
  <text x="1020" y="270" text-anchor="middle" font-family="Arial" font-size="8">GPIO15 → Gate (10k pulldown)</text>
  <text x="1020" y="284" text-anchor="middle" font-family="Arial" font-size="8">Drain → BDD pump 12V</text>
  <text x="1020" y="298" text-anchor="middle" font-family="Arial" font-size="8" fill="#008000">Source → GND</text>
  <!-- GPIO15 to MOSFET -->
  <line x1="920" y1="270" x2="940" y2="270" stroke="#0066CC" stroke-width="1.5"/>
  <text x="930" y="265" font-family="Arial" font-size="7" fill="#0066CC">GPIO15</text>

  <!-- YF-S201 flow meter -->
  <rect x="720" y="265" width="130" height="50" fill="#f4a020" stroke="#d07000" stroke-width="1.5" rx="3"/>
  <text x="785" y="282" text-anchor="middle" font-family="Arial" font-size="9" font-weight="bold">YF-S201</text>
  <text x="785" y="296" text-anchor="middle" font-family="Arial" font-size="8">Flow Meter | GPIO3</text>
  <text x="785" y="308" text-anchor="middle" font-family="Arial" font-size="7">Pulse | 10k pull-up</text>

  <!-- A02YYUW -->
  <rect x="860" y="310" width="160" height="50" fill="#f4a020" stroke="#d07000" stroke-width="1.5" rx="3"/>
  <text x="940" y="327" text-anchor="middle" font-family="Arial" font-size="9" font-weight="bold">A02YYUW</text>
  <text x="940" y="341" text-anchor="middle" font-family="Arial" font-size="8">GPIO20/21 | UART2</text>
  <text x="940" y="354" text-anchor="middle" font-family="Arial" font-size="7">9600 baud | IP67</text>

  <!-- DS3231 RTC -->
  <rect x="720" y="325" width="130" height="50" fill="#2e5e2e" stroke="#1a3a1a" stroke-width="1.5" rx="3"/>
  <text x="785" y="342" text-anchor="middle" font-family="Arial" font-size="9" font-weight="bold" fill="white">DS3231 (ZS-042)</text>
  <text x="785" y="356" text-anchor="middle" font-family="Arial" font-size="8" fill="#aaffaa">GPIO6/7 I²C | 0x68</text>
  <text x="785" y="368" text-anchor="middle" font-family="Arial" font-size="7" fill="#aaffaa">±2 ppm | CR2032</text>

  <!-- Cistern float switch -->
  <rect x="720" y="385" width="130" height="40" fill="#009900" stroke="#006600" stroke-width="1.5" rx="3"/>
  <text x="785" y="402" text-anchor="middle" font-family="Arial" font-size="9" font-weight="bold" fill="white">Cistern Float</text>
  <text x="785" y="416" text-anchor="middle" font-family="Arial" font-size="8" fill="#ccffcc">GPIO2 | 10k pull-up</text>

  <!-- OLED -->
  <rect x="860" y="370" width="130" height="40" fill="#1f3a5f" stroke="#0d1f30" stroke-width="1.5" rx="3"/>
  <text x="925" y="387" text-anchor="middle" font-family="Arial" font-size="9" font-weight="bold" fill="white">SSD1306 OLED</text>
  <text x="925" y="401" text-anchor="middle" font-family="Arial" font-size="8" fill="#aaccff">GPIO6/7 I²C | 0x3C</text>

  <!-- Mode switch and buttons -->
  <rect x="720" y="435" width="100" height="35" fill="#ddd" stroke="#888" stroke-width="1.5" rx="3"/>
  <text x="770" y="450" text-anchor="middle" font-family="Arial" font-size="8" font-weight="bold">Mode Toggle</text>
  <text x="770" y="463" text-anchor="middle" font-family="Arial" font-size="7">GPIO4 | 10k pull-up</text>
  <rect x="830" y="435" width="80" height="35" fill="#ddd" stroke="#888" stroke-width="1.5" rx="3"/>
  <text x="870" y="450" text-anchor="middle" font-family="Arial" font-size="8" font-weight="bold">Manual BTN</text>
  <text x="870" y="463" text-anchor="middle" font-family="Arial" font-size="7">GPIO5 | 10k pull-up</text>

  <!-- Aviation LEDs -->
  <rect x="720" y="480" width="100" height="35" fill="#CC0000" stroke="#880000" stroke-width="1.5" rx="3"/>
  <text x="770" y="495" text-anchor="middle" font-family="Arial" font-size="8" font-weight="bold" fill="white">Aviation R</text>
  <text x="770" y="508" text-anchor="middle" font-family="Arial" font-size="7" fill="#ffaaaa">GPIO10 | 220Ω</text>
  <rect x="830" y="480" width="100" height="35" fill="#fff" stroke="#888" stroke-width="1.5" rx="3"/>
  <text x="880" y="495" text-anchor="middle" font-family="Arial" font-size="8" font-weight="bold">Aviation W</text>
  <text x="880" y="508" text-anchor="middle" font-family="Arial" font-size="7" fill="#333">GPIO11 | 120Ω</text>
  <rect x="940" y="480" width="100" height="35" fill="#0044CC" stroke="#002288" stroke-width="1.5" rx="3"/>
  <text x="990" y="495" text-anchor="middle" font-family="Arial" font-size="8" font-weight="bold" fill="white">Aviation B</text>
  <text x="990" y="508" text-anchor="middle" font-family="Arial" font-size="7" fill="#aaccff">GPIO12 | 120Ω</text>
  <rect x="1050" y="480" width="100" height="35" fill="#FF8800" stroke="#cc5500" stroke-width="1.5" rx="3"/>
  <text x="1100" y="495" text-anchor="middle" font-family="Arial" font-size="8" font-weight="bold" fill="white">Aviation O</text>
  <text x="1100" y="508" text-anchor="middle" font-family="Arial" font-size="7" fill="#ffddbb">GPIO13 | 220Ω</text>

  <!-- WS2812B toilet -->
  <rect x="720" y="525" width="130" height="35" fill="#993399" stroke="#660066" stroke-width="1.5" rx="3"/>
  <text x="785" y="540" text-anchor="middle" font-family="Arial" font-size="8" font-weight="bold" fill="white">WS2812B Toilet</text>
  <text x="785" y="553" text-anchor="middle" font-family="Arial" font-size="7" fill="#ddaadd">GPIO16 | NeoPixel</text>

  <!-- 12V busbar connections -->
  <line x1="565" y1="155" x2="565" y2="295" stroke="#CC0000" stroke-width="2"/>
  <text x="570" y="220" font-family="Arial" font-size="7" fill="#CC0000">BDD pump</text>
  <text x="570" y="230" font-family="Arial" font-size="7" fill="#CC0000">GPIO15 drain</text>
  <line x1="565" y1="295" x2="940" y2="270" stroke="#CC0000" stroke-width="1.5" stroke-dasharray="3,2"/>
  <text x="750" y="280" font-family="Arial" font-size="7" fill="#CC0000">12V pump rail</text>

  <!-- Section 5: Interface panel + door -->
  <rect x="1135" y="120" width="325" height="280" fill="#f8f0e8" stroke="#5c3317" stroke-width="1.5" rx="4"/>
  <text x="1145" y="142" font-family="Arial" font-size="12" font-weight="bold" fill="#5c3317">5. INTERFACE PANEL</text>
  <text x="1145" y="156" font-family="Arial" font-size="8" fill="#666">Mounted on Hammond RP1465C door</text>

  <!-- Mode toggles -->
  <rect x="1155" y="170" width="60" height="35" fill="#ddd" stroke="#888" stroke-width="1.5" rx="3"/>
  <text x="1185" y="185" text-anchor="middle" font-family="Arial" font-size="8" font-weight="bold">MODE</text>
  <text x="1185" y="198" text-anchor="middle" font-family="Arial" font-size="7">OFF|AUTO|MAN</text>
  <circle cx="1165" cy="195" r="8" fill="#fff" stroke="#888" stroke-width="1"/>
  <circle cx="1185" cy="195" r="8" fill="#888" stroke="#666" stroke-width="1"/>
  <circle cx="1205" cy="195" r="8" fill="#fff" stroke="#888" stroke-width="1"/>
  <text x="1155" y="220" font-family="Arial" font-size="7">Well pump mode</text>

  <!-- Buttons -->
  <circle cx="1185" cy="245" r="12" fill="#009900" stroke="#006600" stroke-width="1.5"/>
  <text x="1185" y="249" text-anchor="middle" font-family="Arial" font-size="7" fill="white">W</text>
  <text x="1185" y="265" text-anchor="middle" font-family="Arial" font-size="7">Well btn</text>
  <circle cx="1240" cy="245" r="12" fill="#009900" stroke="#006600" stroke-width="1.5"/>
  <text x="1240" y="249" text-anchor="middle" font-family="Arial" font-size="7" fill="white">J</text>
  <text x="1240" y="265" text-anchor="middle" font-family="Arial" font-size="7">JoJo btn</text>
  <circle cx="1295" cy="245" r="12" fill="#CC0000" stroke="#880000" stroke-width="1.5"/>
  <text x="1295" y="249" text-anchor="middle" font-family="Arial" font-size="7" fill="white">R</text>
  <text x="1295" y="265" text-anchor="middle" font-family="Arial" font-size="7">Reset</text>

  <!-- Status LEDs -->
  <circle cx="1165" cy="305" r="10" fill="#00cc00" stroke="#008800" stroke-width="1"/>
  <text x="1185" y="309" font-family="Arial" font-size="8">Run</text>
  <circle cx="1215" cy="305" r="10" fill="#CC0000" stroke="#880000" stroke-width="1"/>
  <text x="1235" y="309" font-family="Arial" font-size="8">Fault</text>
  <circle cx="1265" cy="305" r="10" fill="#FF8800" stroke="#cc5500" stroke-width="1"/>
  <text x="1285" y="309" font-family="Arial" font-size="8">Active</text>

  <!-- OLED on door -->
  <rect x="1320" y="165" width="120" height="90" fill="#1f3a5f" stroke="#0d1f30" stroke-width="1.5" rx="3"/>
  <rect x="1325" y="170" width="110" height="60" fill="#000" stroke="#333" stroke-width="0.5"/>
  <text x="1380" y="185" text-anchor="middle" font-family="monospace" font-size="8" fill="#00ff00">Water PLC v0.3</text>
  <text x="1380" y="197" text-anchor="middle" font-family="monospace" font-size="7" fill="#00ff00">JoJo: 75%</text>
  <text x="1380" y="207" text-anchor="middle" font-family="monospace" font-size="7" fill="#00ff00">PUMP: OFF</text>
  <text x="1380" y="217" text-anchor="middle" font-family="monospace" font-size="7" fill="#00ff00">19:45 18/07</text>
  <text x="1380" y="240" text-anchor="middle" font-family="Arial" font-size="8" fill="white">OLED 0.96"</text>

  <!-- Well pump connection box -->
  <rect x="1300" y="340" width="140" height="60" fill="#eee" stroke="#888" stroke-width="1.5" rx="3"/>
  <text x="1370" y="357" text-anchor="middle" font-family="Arial" font-size="9" font-weight="bold">→ WELL PUMP</text>
  <text x="1370" y="372" text-anchor="middle" font-family="Arial" font-size="8">220V AC | 0.75kW</text>
  <text x="1370" y="387" text-anchor="middle" font-family="Arial" font-size="7" fill="#666">From HL-52S contacts</text>
  <!-- Wire from relay to well pump -->
  <line x1="1100" y1="190" x2="1300" y2="370" stroke="#CC0000" stroke-width="2" marker-end="url(#arrRed)"/>

  <!-- Section 6: Legend -->
  <rect x="50" y="630" width="700" height="150" fill="#f8f8f8" stroke="#2a2a2a" stroke-width="1.5" rx="4"/>
  <text x="60" y="650" font-family="Arial" font-size="11" font-weight="bold" fill="#2a2a2a">LEGEND</text>
  <line x1="60" y1="660" x2="740" y2="660" stroke="#2a2a2a" stroke-width="0.5"/>
  <line x1="60" y1="680" x2="200" y2="680" stroke="#CC0000" stroke-width="2"/>
  <text x="210" y="683" font-family="Arial" font-size="9">220V AC hot (L)</text>
  <line x1="60" y1="700" x2="200" y2="700" stroke="#0066CC" stroke-width="2"/>
  <text x="210" y="703" font-family="Arial" font-size="9">Signal / GPIO (3.3V / 5V)</text>
  <line x1="60" y1="720" x2="200" y2="720" stroke="#FF8800" stroke-width="2"/>
  <text x="210" y="723" font-family="Arial" font-size="9">+5V power rail</text>
  <line x1="60" y1="740" x2="200" y2="740" stroke="#CC0000" stroke-width="2"/>
  <text x="210" y="743" font-family="Arial" font-size="9">+12V power rail</text>
  <line x1="60" y1="760" x2="200" y2="760" stroke="#888" stroke-width="2"/>
  <text x="210" y="763" font-family="Arial" font-size="9">GND / earth</text>
  <line x1="400" y1="680" x2="540" y2="680" stroke="#CC0000" stroke-width="1.5" stroke-dasharray="4,2"/>
  <text x="550" y="683" font-family="Arial" font-size="9">Power wiring</text>
  <line x1="400" y1="700" x2="540" y2="700" stroke="#0066CC" stroke-width="1.5" stroke-dasharray="4,2"/>
  <text x="550" y="703" font-family="Arial" font-size="9">Signal wiring</text>
  <text x="400" y="723" font-family="Arial" font-size="9" fill="#CC0000" font-weight="bold">CRITICAL: 2A MCB must be DC-rated</text>
  <text x="400" y="743" font-family="Arial" font-size="9" fill="#666">AC MCBs cannot extinguish DC arcs safely</text>
  <text x="400" y="763" font-family="Arial" font-size="9" fill="#666">Wire sizes: 4mm² (mains) | 1.5mm² (LV)</text>

  <!-- BOM notes -->
  <rect x="760" y="630" width="400" height="150" fill="#f8f8f8" stroke="#2a2a2a" stroke-width="1.5" rx="4"/>
  <text x="770" y="650" font-family="Arial" font-size="11" font-weight="bold" fill="#2a2a2a">KEY COMPONENTS</text>
  <text x="770" y="668" font-family="Arial" font-size="8" fill="#333">E-02: Mornsun LM50-23B12R2S | 50W 12V/4.2A | R265</text>
  <text x="770" y="682" font-family="Arial" font-size="8" fill="#333">E-03: LM2596 buck (ZUN HAS) | Set to 5.0V ±0.1V</text>
  <text x="770" y="696" font-family="Arial" font-size="8" fill="#333">E-01: ESP32-C6 DevKitC-1 N16R8 | 19 GPIO | R195</text>
  <text x="770" y="710" font-family="Arial" font-size="8" fill="#333">E-06: HL-52S relay | 5V coil | 10A contacts | R55</text>
  <text x="770" y="724" font-family="Arial" font-size="8" fill="#333">E-07: AO3400A MOSFET | Vdss 30V | Id 5.8A | R5</text>
  <text x="770" y="738" font-family="Arial" font-size="8" fill="#333">MCB-04: 2A DC-rated MCB | SANS 60898 | R185</text>
  <text x="770" y="752" font-family="Arial" font-size="8" fill="#333">ENC-01: Hammond RP1465C | IP65 | 220×165×85mm | R245</text>
  <text x="770" y="766" font-family="Arial" font-size="8" fill="#333">LEDs: Rabtron Wahwang WW10A3 series | R10 ea | 2800-13800 mcd</text>

  <!-- Title block -->
  <rect x="1175" y="700" width="285" height="120" fill="white" stroke="#2a2a2a" stroke-width="1.5"/>
  <line x1="1175" y1="728" x2="1460" y2="728" stroke="#2a2a2a"/>
  <line x1="1175" y1="748" x2="1460" y2="748" stroke="#2a2a2a"/>
  <line x1="1175" y1="768" x2="1460" y2="768" stroke="#2a2a2a"/>
  <line x1="1175" y1="788" x2="1460" y2="788" stroke="#2a2a2a"/>
  <line x1="1315" y1="700" x2="1315" y2="820" stroke="#2a2a2a"/>
  <line x1="1387" y1="700" x2="1387" y2="820" stroke="#2a2a2a"/>
  <text x="1183" y="716" font-family="Arial" font-size="9" font-weight="bold">Drawing D-02</text>
  <text x="1323" y="716" font-family="Arial" font-size="9" font-weight="bold">Rev 0.3</text>
  <text x="1395" y="716" font-family="Arial" font-size="9" font-weight="bold">2026-07-18</text>
  <text x="1183" y="739" font-family="Arial" font-size="8">Electrical Single-Line</text>
  <text x="1323" y="739" font-family="Arial" font-size="8">Sheet 1 of 1</text>
  <text x="1395" y="739" font-family="Arial" font-size="8">Misha</text>
  <text x="1183" y="759" font-family="Arial" font-size="8">Scale 1:20 | Grid 10mm</text>
  <text x="1183" y="779" font-family="Arial" font-size="8">DAT-WATER-PLC-001 | v0.3-Misha</text>
</svg>