<?xml version="1.0" encoding="UTF-8" standalone="no"?>
<svg xmlns="http://www.w3.org/2000/svg" viewBox="0 0 1500 900" width="1500" height="900">
  <defs>
    <pattern id="grid3" width="10" height="10" patternUnits="userSpaceOnUse">
      <path d="M 10 0 L 0 0 0 10" fill="none" stroke="#f5f5f5" stroke-width="0.3"/>
    </pattern>
    <marker id="arrR3" viewBox="0 0 10 10" refX="9" refY="5" markerWidth="6" markerHeight="6" orient="auto">
      <path d="M 0 0 L 10 5 L 0 10 z" fill="#CC0000"/>
    </marker>
    <marker id="arrO3" viewBox="0 0 10 10" refX="9" refY="5" markerWidth="6" markerHeight="6" orient="auto">
      <path d="M 0 0 L 10 5 L 0 10 z" fill="#FF8800"/>
    </marker>
    <marker id="arrB3" viewBox="0 0 10 10" refX="9" refY="5" markerWidth="6" markerHeight="6" orient="auto">
      <path d="M 0 0 L 10 5 L 0 10 z" fill="#0066CC"/>
    </marker>
    <marker id="arrG3" viewBox="0 0 10 10" refX="9" refY="5" markerWidth="6" markerHeight="6" orient="auto">
      <path d="M 0 0 L 10 5 L 0 10 z" fill="#008000"/>
    </marker>
  </defs>
  <rect x="0" y="0" width="1500" height="900" fill="white"/>
  <rect x="0" y="0" width="1500" height="900" fill="none" stroke="#2a2a2a" stroke-width="3"/>
  <rect x="20" y="20" width="1460" height="860" fill="none" stroke="#2a2a2a" stroke-width="1"/>
  <rect x="40" y="50" width="1420" height="790" fill="url(#grid3)"/>

  <!-- Header -->
  <rect x="40" y="50" width="1100" height="55" fill="#1f3a5f"/>
  <text x="590" y="82" text-anchor="middle" font-family="Arial" font-size="19" font-weight="bold" fill="white">
    ESP32-C6 DevKitC-1 — IO Wiring Diagram
  </text>
  <text x="590" y="96" text-anchor="middle" font-family="Arial" font-size="9" fill="#aaccff">
    DAT-WATER-PLC-001 | Rev 0.3 | 2026-07-18 | Sheet 1 of 1
  </text>

  <!-- ===== POWER RAILS ===== -->
  <rect x="40" y="115" width="1420" height="65" fill="#ffe6e6" stroke="#CC0000" stroke-width="1.5" rx="4"/>
  <text x="50" y="135" font-family="Arial" font-size="11" font-weight="bold" fill="#CC0000">POWER RAILS</text>
  <!-- 12V -->
  <rect x="160" y="123" width="130" height="40" fill="#CC0000" stroke="#880000" stroke-width="1.5" rx="3"/>
  <text x="225" y="138" text-anchor="middle" font-family="Arial" font-size="12" font-weight="bold" fill="white">+12V RAIL</text>
  <text x="225" y="152" text-anchor="middle" font-family="Arial" font-size="9" fill="#ffaaaa">From Mornsun LM50-23B12R2S</text>
  <!-- 5V -->
  <rect x="320" y="123" width="130" height="40" fill="#FF8800" stroke="#cc5500" stroke-width="1.5" rx="3"/>
  <text x="385" y="138" text-anchor="middle" font-family="Arial" font-size="12" font-weight="bold" fill="white">+5V RAIL</text>
  <text x="385" y="152" text-anchor="middle" font-family="Arial" font-size="9" fill="#ffddbb">From LM2596 buck (set to 5.0V)</text>
  <!-- 3.3V -->
  <rect x="480" y="123" width="130" height="40" fill="#FF6600" stroke="#cc4400" stroke-width="1.5" rx="3"/>
  <text x="545" y="138" text-anchor="middle" font-family="Arial" font-size="12" font-weight="bold" fill="white">+3.3V RAIL</text>
  <text x="545" y="152" text-anchor="middle" font-family="Arial" font-size="9" fill="#ffe0cc">From ESP32-C6 on-board LDO</text>
  <!-- GND -->
  <rect x="640" y="123" width="130" height="40" fill="#888" stroke="#555" stroke-width="1.5" rx="3"/>
  <text x="705" y="138" text-anchor="middle" font-family="Arial" font-size="12" font-weight="bold" fill="white">GND RAIL</text>
  <text x="705" y="152" text-anchor="middle" font-family="Arial" font-size="9" fill="#ddd">Common ground all rails</text>
  <!-- Zun has note -->
  <rect x="900" y="120" width="200" height="48" fill="#fffbe6" stroke="#806600" stroke-width="1.5" rx="3"/>
  <text x="1000" y="137" text-anchor="middle" font-family="Arial" font-size="10" font-weight="bold" fill="#806600">LM2596 MODULE</text>
  <text x="1000" y="152" text-anchor="middle" font-family="Arial" font-size="9" fill="#333">ZUN HAS | Verify 5.0V ±0.1V output</text>
  <text x="1000" y="164" text-anchor="middle" font-family="Arial" font-size="8" fill="#666">before connecting ESP32</text>

  <!-- ===== ESP32-C6 MAIN BLOCK ===== -->
  <rect x="60" y="200" width="420" height="530" fill="#0d6b1f" stroke="#0a4d15" stroke-width="2" rx="8"/>
  <text x="270" y="225" text-anchor="middle" font-family="Arial" font-size="18" font-weight="bold" fill="white">ESP32-C6 DevKitC-1</text>
  <text x="270" y="243" text-anchor="middle" font-family="Arial" font-size="11" fill="#aaffaa">N16R8 | 8MB Flash | WiFi 6 | BLE 5</text>
  <text x="270" y="258" text-anchor="middle" font-family="Arial" font-size="9" fill="#88aa88">USB-C programming | 160MHz RISC-V</text>

  <!-- GPIO pins — LEFT column (inputs) -->
  <g font-family="Arial" font-size="10" fill="white">
    <!-- GPIO2 -->
    <rect x="70" y="275" width="75" height="24" fill="#0a4d15" stroke="#0d6b1f" stroke-width="1"/>
    <text x="107" y="291" text-anchor="middle" font-weight="bold">GPIO2</text>
    <rect x="150" y="275" width="90" height="24" fill="#006600" stroke="#004400" stroke-width="1" rx="2"/>
    <text x="195" y="291" text-anchor="middle">Cistern Float</text>
    <text x="107" y="305" text-anchor="middle" font-family="Arial" font-size="8" fill="#ccffcc">INPUT 10k↑</text>
    <line x1="195" y1="275" x2="195" y2="250" stroke="#008000" stroke-width="1.5"/>
    <text x="200" y="253" font-family="Arial" font-size="7" fill="#008000">dry contact</text>

    <!-- GPIO3 -->
    <rect x="70" y="315" width="75" height="24" fill="#0a4d15" stroke="#0d6b1f" stroke-width="1"/>
    <text x="107" y="331" text-anchor="middle" font-weight="bold">GPIO3</text>
    <rect x="150" y="315" width="90" height="24" fill="#f4a020" stroke="#d07000" stroke-width="1" rx="2"/>
    <text x="195" y="331" text-anchor="middle">YF-S201 Flow</text>
    <text x="107" y="345" text-anchor="middle" font-family="Arial" font-size="8" fill="#ccffcc">INPUT 10k↑</text>
    <line x1="195" y1="315" x2="195" y2="250" stroke="#f4a020" stroke-width="1.5"/>
    <text x="200" y="263" font-family="Arial" font-size="7" fill="#f4a020">pulse interrupt</text>

    <!-- GPIO4 -->
    <rect x="70" y="355" width="75" height="24" fill="#0a4d15" stroke="#0d6b1f" stroke-width="1"/>
    <text x="107" y="371" text-anchor="middle" font-weight="bold">GPIO4</text>
    <rect x="150" y="355" width="90" height="24" fill="#ddd" stroke="#888" stroke-width="1" rx="2"/>
    <text x="195" y="371" text-anchor="middle">Mode Toggle</text>
    <text x="107" y="385" text-anchor="middle" font-family="Arial" font-size="8" fill="#ccffcc">INPUT 10k↑</text>
    <line x1="195" y1="355" x2="195" y2="350" stroke="#888" stroke-width="1.5"/>
    <text x="200" y="348" font-family="Arial" font-size="7" fill="#666">3-pos OFF/AUTO/MAN</text>

    <!-- GPIO5 -->
    <rect x="70" y="395" width="75" height="24" fill="#0a4d15" stroke="#0d6b1f" stroke-width="1"/>
    <text x="107" y="411" text-anchor="middle" font-weight="bold">GPIO5</text>
    <rect x="150" y="395" width="90" height="24" fill="#ddd" stroke="#888" stroke-width="1" rx="2"/>
    <text x="195" y="411" text-anchor="middle">Manual Button</text>
    <text x="107" y="425" text-anchor="middle" font-family="Arial" font-size="8" fill="#ccffcc">INPUT 10k↑</text>
    <line x1="195" y1="395" x2="195" y2="380" stroke="#888" stroke-width="1.5"/>
    <text x="200" y="378" font-family="Arial" font-size="7" fill="#666">momentary NO</text>

    <!-- GPIO6 -->
    <rect x="70" y="435" width="75" height="24" fill="#0a4d15" stroke="#0d6b1f" stroke-width="1"/>
    <text x="107" y="451" text-anchor="middle" font-weight="bold">GPIO6</text>
    <rect x="150" y="435" width="90" height="24" fill="#993399" stroke="#660066" stroke-width="1" rx="2"/>
    <text x="195" y="451" text-anchor="middle">I²C SDA</text>
    <text x="107" y="465" text-anchor="middle" font-family="Arial" font-size="8" fill="#ccffcc">I²C BUS</text>
    <line x1="195" y1="435" x2="195" y2="430" stroke="#993399" stroke-width="1.5"/>
    <text x="200" y="428" font-family="Arial" font-size="7" fill="#993399">OLED + DS3231</text>

    <!-- GPIO7 -->
    <rect x="70" y="475" width="75" height="24" fill="#0a4d15" stroke="#0d6b1f" stroke-width="1"/>
    <text x="107" y="491" text-anchor="middle" font-weight="bold">GPIO7</text>
    <rect x="150" y="475" width="90" height="24" fill="#993399" stroke="#660066" stroke-width="1" rx="2"/>
    <text x="195" y="491" text-anchor="middle">I²C SCL</text>
    <text x="107" y="505" text-anchor="middle" font-family="Arial" font-size="8" fill="#ccffcc">I²C BUS</text>
  </g>

  <!-- GPIO pins — RIGHT column (outputs) -->
  <g font-family="Arial" font-size="10" fill="white">
    <!-- GPIO10 -->
    <rect x="355" y="275" width="75" height="24" fill="#0a4d15" stroke="#0d6b1f" stroke-width="1"/>
    <text x="392" y="291" text-anchor="middle" font-weight="bold">GPIO10</text>
    <rect x="435" y="275" width="90" height="24" fill="#CC0000" stroke="#880000" stroke-width="1" rx="2"/>
    <text x="480" y="291" text-anchor="middle">Aviation Red</text>
    <text x="392" y="305" text-anchor="middle" font-family="Arial" font-size="8" fill="#ffaaaa">LEDC PWM</text>
    <line x1="435" y1="287" x2="435" y2="250" stroke="#CC0000" stroke-width="1.5"/>
    <text x="530" y="270" font-family="Arial" font-size="7" fill="#CC0000">WW10A3SRQ4-N2 | 220Ω | 5V</text>

    <!-- GPIO11 -->
    <rect x="355" y="315" width="75" height="24" fill="#0a4d15" stroke="#0d6b1f" stroke-width="1"/>
    <text x="392" y="331" text-anchor="middle" font-weight="bold">GPIO11</text>
    <rect x="435" y="315" width="90" height="24" fill="#fff" stroke="#888" stroke-width="1" rx="2"/>
    <text x="480" y="331" text-anchor="middle">Aviation White</text>
    <text x="392" y="345" text-anchor="middle" font-family="Arial" font-size="8" fill="#ffaaaa">LEDC PWM</text>
    <line x1="435" y1="327" x2="435" y2="270" stroke="#CC0000" stroke-width="1.5"/>
    <text x="530" y="310" font-family="Arial" font-size="7" fill="#CC6600">WW10A3SWQ4-N2 | 120Ω | 5V</text>

    <!-- GPIO12 -->
    <rect x="355" y="355" width="75" height="24" fill="#0a4d15" stroke="#0d6b1f" stroke-width="1"/>
    <text x="392" y="371" text-anchor="middle" font-weight="bold">GPIO12</text>
    <rect x="435" y="355" width="90" height="24" fill="#0044CC" stroke="#002288" stroke-width="1" rx="2"/>
    <text x="480" y="371" text-anchor="middle">Aviation Blue</text>
    <text x="392" y="385" text-anchor="middle" font-family="Arial" font-size="8" fill="#aaccff">LEDC PWM</text>
    <line x1="435" y1="367" x2="435" y2="290" stroke="#0044CC" stroke-width="1.5"/>
    <text x="530" y="350" font-family="Arial" font-size="7" fill="#0044CC">WW10A3SBQ4-N2 | 120Ω | 5V</text>

    <!-- GPIO13 -->
    <rect x="355" y="395" width="75" height="24" fill="#0a4d15" stroke="#0d6b1f" stroke-width="1"/>
    <text x="392" y="411" text-anchor="middle" font-weight="bold">GPIO13</text>
    <rect x="435" y="395" width="90" height="24" fill="#FF8800" stroke="#cc5500" stroke-width="1" rx="2"/>
    <text x="480" y="411" text-anchor="middle">Aviation Orange</text>
    <text x="392" y="425" text-anchor="middle" font-family="Arial" font-size="8" fill="#ffddbb">LEDC PWM</text>
    <line x1="435" y1="407" x2="435" y2="310" stroke="#FF8800" stroke-width="1.5"/>
    <text x="530" y="390" font-family="Arial" font-size="7" fill="#FF8800">WW10A3OYF4-N2 | 220Ω | 5V</text>

    <!-- GPIO15 (MOSFET) -->
    <rect x="355" y="435" width="75" height="24" fill="#993300" stroke="#661a00" stroke-width="1"/>
    <text x="392" y="451" text-anchor="middle" font-weight="bold">GPIO15 ⚠</text>
    <rect x="435" y="435" width="90" height="24" fill="#CC6600" stroke="#994400" stroke-width="1" rx="2"/>
    <text x="480" y="451" text-anchor="middle">BDD Pump</text>
    <text x="392" y="465" text-anchor="middle" font-family="Arial" font-size="8" fill="#ffccaa">10k↓ MOSFET</text>
    <line x1="435" y1="447" x2="435" y2="330" stroke="#CC6600" stroke-width="1.5"/>
    <text x="530" y="430" font-family="Arial" font-size="7" fill="#CC6600">AO3400A gate | Drain→12V | Source→GND</text>

    <!-- GPIO16 (WS2812B) -->
    <rect x="355" y="475" width="75" height="24" fill="#0a4d15" stroke="#0d6b1f" stroke-width="1"/>
    <text x="392" y="491" text-anchor="middle" font-weight="bold">GPIO16</text>
    <rect x="435" y="475" width="90" height="24" fill="#993399" stroke="#660066" stroke-width="1" rx="2"/>
    <text x="480" y="491" text-anchor="middle">Toilet WS2812B</text>
    <text x="392" y="505" text-anchor="middle" font-family="Arial" font-size="8" fill="#ddaadd">NeoPixel</text>
    <line x1="435" y1="487" x2="435" y2="350" stroke="#993399" stroke-width="1.5"/>
    <text x="530" y="470" font-family="Arial" font-size="7" fill="#993399">3mm WS2812B RGB | 5V | 1-wire</text>

    <!-- GPIO18 (Relay) -->
    <rect x="355" y="515" width="75" height="24" fill="#0a4d15" stroke="#0d6b1f" stroke-width="1"/>
    <text x="392" y="531" text-anchor="middle" font-weight="bold">GPIO18</text>
    <rect x="435" y="515" width="90" height="24" fill="#ddd" stroke="#888" stroke-width="1" rx="2"/>
    <text x="480" y="531" text-anchor="middle">Well Pump Relay</text>
    <text x="392" y="545" text-anchor="middle" font-family="Arial" font-size="8" fill="#ccffcc">opto-isolated</text>
    <line x1="435" y1="527" x2="435" y2="370" stroke="#888" stroke-width="1.5"/>
    <text x="530" y="510" font-family="Arial" font-size="7" fill="#666">HL-52S coil | 5V | 10A contacts 220V</text>

    <!-- GPIO20/21 UART2 -->
    <rect x="355" y="555" width="75" height="24" fill="#0a4d15" stroke="#0d6b1f" stroke-width="1"/>
    <text x="392" y="571" text-anchor="middle" font-weight="bold">GPIO20</text>
    <rect x="355" y="585" width="75" height="24" fill="#0a4d15" stroke="#0d6b1f" stroke-width="1"/>
    <text x="392" y="601" text-anchor="middle" font-weight="bold">GPIO21</text>
    <rect x="435" y="555" width="100" height="54" fill="#f4a020" stroke="#d07000" stroke-width="1" rx="2"/>
    <text x="490" y="573" text-anchor="middle" font-family="Arial" font-size="9" font-weight="bold">A02YYUW</text>
    <text x="490" y="587" text-anchor="middle" font-family="Arial" font-size="8">UART2 | 9600 baud</text>
    <text x="490" y="599" text-anchor="middle" font-family="Arial" font-size="8">GPIO20=RX GPIO21=TX</text>
    <text x="392" y="615" text-anchor="middle" font-family="Arial" font-size="8" fill="#ffccaa">UART2</text>
    <line x1="435" y1="575" x2="435" y2="390" stroke="#f4a020" stroke-width="1.5"/>
  </g>

  <!-- Bottom of ESP32: boot notes -->
  <rect x="70" y="640" width="400" height="70" fill="#fffbe6" stroke="#806600" stroke-width="1" rx="3"/>
  <text x="80" y="658" font-family="Arial" font-size="9" font-weight="bold" fill="#806600">ESP32-C6 BOOT NOTES</text>
  <text x="80" y="674" font-family="Arial" font-size="8" fill="#333">• GPIO15 is strap pin (SPI boot) — 10kΩ pull-down ensures safe boot</text>
  <text x="80" y="688" font-family="Arial" font-size="8" fill="#333">• GPIO0, GPIO1, GPIO8, GPIO9, GPIO19 are spare for future expansion</text>
  <text x="80" y="702" font-family="Arial" font-size="8" fill="#333">• Do NOT apply 5V to any GPIO — ESP32 is 3.3V logic only</text>

  <!-- ===== SECTION 2: I²C BUS ===== -->
  <rect x="510" y="115" width="340" height="160" fill="#f3e8ff" stroke="#993399" stroke-width="1.5" rx="4"/>
  <text x="520" y="135" font-family="Arial" font-size="11" font-weight="bold" fill="#660066">I²C BUS — GPIO6 (SDA) + GPIO7 (SCL) @ 100kHz</text>
  <!-- OLED -->
  <rect x="525" y="148" width="150" height="75" fill="#1f3a5f" stroke="#0d1f30" stroke-width="1.5" rx="4"/>
  <text x="600" y="167" text-anchor="middle" font-family="Arial" font-size="10" font-weight="bold" fill="white">SSD1306 OLED</text>
  <text x="600" y="183" text-anchor="middle" font-family="Arial" font-size="8" fill="#aaccff">0.96" 128×64 | I²C 0x3C</text>
  <text x="600" y="197" text-anchor="middle" font-family="Arial" font-size="8" fill="#aaccff">3.3V | 4.7kΩ pull-ups</text>
  <text x="600" y="211" text-anchor="middle" font-family="Arial" font-size="8" fill="#aaccff">Status display</text>
  <!-- DS3231 -->
  <rect x="685" y="148" width="150" height="75" fill="#2e5a2e" stroke="#1a3a1a" stroke-width="1.5" rx="4"/>
  <text x="760" y="167" text-anchor="middle" font-family="Arial" font-size="10" font-weight="bold" fill="white">DS3231 RTC (ZS-042)</text>
  <text x="760" y="183" text-anchor="middle" font-family="Arial" font-size="8" fill="#aaffaa">I²C 0x68 | ±2 ppm</text>
  <text x="760" y="197" text-anchor="middle" font-family="Arial" font-size="8" fill="#aaffaa">CR2032 battery backup</text>
  <text x="760" y="211" text-anchor="middle" font-family="Arial" font-size="8" fill="#aaffaa">Time backup during WiFi outage</text>
  <!-- 4.7k pull-ups shown -->
  <rect x="600" y="228" width="40" height="14" fill="#ffe6e6" stroke="#CC0000" stroke-width="1"/>
  <text x="620" y="239" text-anchor="middle" font-family="Arial" font-size="8" fill="#CC0000">4.7kΩ</text>
  <rect x="760" y="228" width="40" height="14" fill="#ffe6e6" stroke="#CC0000" stroke-width="1"/>
  <text x="780" y="239" text-anchor="middle" font-family="Arial" font-size="8" fill="#CC0000">4.7kΩ</text>

  <!-- ===== SECTION 3: DIGITAL OUTPUTS (MOSFET) ===== -->
  <rect x="510" y="285" width="460" height="180" fill="#fff8f0" stroke="#CC6600" stroke-width="1.5" rx="4"/>
  <text x="520" y="305" font-family="Arial" font-size="11" font-weight="bold" fill="#CC6600">DIGITAL OUTPUTS — AO3400A N-Channel MOSFET Driver</text>
  <!-- AO3400 symbol + circuit -->
  <rect x="530" y="315" width="200" height="140" fill="#fff" stroke="#CC6600" stroke-width="1.5" rx="3"/>
  <text x="630" y="333" text-anchor="middle" font-family="Arial" font-size="10" font-weight="bold" fill="#333">AO3400A Circuit (GPIO15 → BDD Pump)</text>
  <!-- ESP32 GPIO -->
  <rect x="540" y="350" width="70" height="22" fill="#1f3a5f" stroke="#0d1f30" stroke-width="1" rx="2"/>
  <text x="575" y="365" text-anchor="middle" font-family="Arial" font-size="8" fill="white">GPIO15</text>
  <!-- Gate wire -->
  <line x1="610" y1="361" x2="620" y2="361" stroke="#FF6600" stroke-width="2"/>
  <rect x="615" y="355" width="35" height="12" fill="#ffe6e6" stroke="#CC0000" stroke-width="1"/>
  <text x="632" y="364" text-anchor="middle" font-family="Arial" font-size="7" fill="#CC0000">10kΩ ↓</text>
  <!-- MOSFET symbol -->
  <line x1="655" y1="350" x2="655" y2="420" stroke="#333" stroke-width="1.5"/>
  <line x1="640" y1="375" x2="655" y2="375" stroke="#333" stroke-width="1.5"/>
  <line x1="640" y1="395" x2="655" y2="395" stroke="#333" stroke-width="1.5"/>
  <text x="658" y="388" font-family="Arial" font-size="8" fill="#333">G</text>
  <!-- Gate → wire to Drain -->
  <line x1="655" y1="375" x2="680" y2="375" stroke="#FF6600" stroke-width="2"/>
  <line x1="680" y1="375" x2="680" y2="355" stroke="#CC0000" stroke-width="2"/>
  <!-- Drain -->
  <line x1="680" y1="355" x2="720" y2="355" stroke="#CC0000" stroke-width="2"/>
  <text x="700" y="350" font-family="Arial" font-size="7" fill="#CC0000">DRAIN → 12V → BDD PUMP</text>
  <!-- Source → GND -->
  <line x1="680" y1="395" x2="680" y2="420" stroke="#333" stroke-width="2"/>
  <line x1="680" y1="420" x2="720" y2="420" stroke="#333" stroke-width="2"/>
  <text x="700" y="430" font-family="Arial" font-size="7" fill="#666">SOURCE → GND</text>
  <!-- Note -->
  <text x="540" y="465" font-family="Arial" font-size="8" fill="#CC6600">Vgs(th) = 0.6-1.4V (logic-level) | Vdss = 30V | Id = 5.8A</text>

  <!-- 4 aviation LED circuits compact -->
  <text x="760" y="318" font-family="Arial" font-size="10" font-weight="bold" fill="#333">Aviation LEDs (GPIO10-13) — LEDC PWM @ 1kHz</text>
  <g font-family="Arial" font-size="8">
    <rect x="760" y="328" width="80" height="20" fill="#CC0000" stroke="#880000" stroke-width="1" rx="2"/>
    <text x="800" y="342" text-anchor="middle" fill="white" font-size="7">R GPIO10</text>
    <rect x="760" y="352" width="80" height="20" fill="#fff" stroke="#888" stroke-width="1" rx="2"/>
    <text x="800" y="366" text-anchor="middle" fill="#333" font-size="7">W GPIO11</text>
    <rect x="760" y="376" width="80" height="20" fill="#0044CC" stroke="#002288" stroke-width="1" rx="2"/>
    <text x="800" y="390" text-anchor="middle" fill="white" font-size="7">B GPIO12</text>
    <rect x="760" y="400" width="80" height="20" fill="#FF8800" stroke="#cc5500" stroke-width="1" rx="2"/>
    <text x="800" y="414" text-anchor="middle" fill="white" font-size="7">O GPIO13</text>
    <text x="860" y="335" font-family="Arial" font-size="7" fill="#CC0000">220Ω/5V</text>
    <text x="860" y="359" font-family="Arial" font-size="7" fill="#333">120Ω/5V</text>
    <text x="860" y="383" font-family="Arial" font-size="7" fill="#0044CC">120Ω/5V</text>
    <text x="860" y="407" font-family="Arial" font-size="7" fill="#FF8800">220Ω/5V</text>
  </g>
  <text x="760" y="432" font-family="Arial" font-size="8" fill="#333">All from +5V rail (LM2596)</text>

  <!-- ===== SECTION 4: TOILET INDICATOR (WS2812B) ===== -->
  <rect x="510" y="475" width="460" height="95" fill="#f8e8ff" stroke="#993399" stroke-width="1.5" rx="4"/>
  <text x="520" y="495" font-family="Arial" font-size="11" font-weight="bold" fill="#660066">TOILET RGB INDICATOR — WS2812B 3mm (GPIO16, NeoPixel)</text>
  <rect x="530" y="508" width="200" height="50" fill="#993399" stroke="#660066" stroke-width="1.5" rx="4"/>
  <text x="630" y="525" text-anchor="middle" font-family="Arial" font-size="10" font-weight="bold" fill="white">WS2812B 3mm RGB</text>
  <text x="630" y="541" text-anchor="middle" font-family="Arial" font-size="8" fill="#ddaadd">Single-wire protocol | 5V | 1500 mcd</text>
  <text x="630" y="553" text-anchor="middle" font-family="Arial" font-size="8" fill="#ddaadd">GPIO16 data | on floating shelf in toilet</text>
  <text x="760" y="525" font-family="Arial" font-size="8" fill="#333">Single GPIO controls RGB colors + brightness</text>
  <text x="760" y="541" font-family="Arial" font-size="8" fill="#333">No resistors needed (built-in controller)</text>
  <text x="760" y="557" font-family="Arial" font-size="8" fill="#666">Home Assistant: light.toilet_indicator</text>

  <!-- ===== SECTION 5: A02YYUW ===== -->
  <rect x="510" y="580" width="460" height="90" fill="#fffbe6" stroke="#f4a020" stroke-width="1.5" rx="4"/>
  <text x="520" y="600" font-family="Arial" font-size="11" font-weight="bold" fill="#d07000">A02YYUW ULTRASONIC SENSOR — GPIO20/21 (UART2, 9600 baud)</text>
  <rect x="530" y="612" width="180" height="50" fill="#f4a020" stroke="#d07000" stroke-width="1.5" rx="4"/>
  <text x="620" y="630" text-anchor="middle" font-family="Arial" font-size="10" font-weight="bold" fill="white">A02YYUW</text>
  <text x="620" y="646" text-anchor="middle" font-family="Arial" font-size="8" fill="#ffe0b0">3-450 cm | IP67 | UART 9600</text>
  <text x="620" y="658" text-anchor="middle" font-family="Arial" font-size="8" fill="#ffe0b0">5V supply | mounted on JoJo lid</text>
  <text x="740" y="630" font-family="Arial" font-size="9" fill="#333">GPIO20 → sensor TX (yellow)</text>
  <text x="740" y="646" font-family="Arial" font-size="9" fill="#333">GPIO21 → sensor RX (white)</text>
  <text x="740" y="662" font-family="Arial" font-size="8" fill="#666">Protocol: 0xFF + 3-byte distance + checksum</text>

  <!-- ===== SECTION 6: FAULT / RESET ===== -->
  <rect x="510" y="680" width="460" height="65" fill="#ffe6e6" stroke="#CC0000" stroke-width="1.5" rx="4"/>
  <text x="520" y="700" font-family="Arial" font-size="11" font-weight="bold" fill="#CC0000">FAULTS + RESET</text>
  <rect x="530" y="710" width="120" height="28" fill="#ddd" stroke="#888" stroke-width="1.5" rx="3"/>
  <text x="590" y="728" text-anchor="middle" font-family="Arial" font-size="9" font-weight="bold">Reset Button</text>
  <text x="590" y="740" text-anchor="middle" font-family="Arial" font-size="8">GPIO9 | 10k pull-up</text>
  <text x="680" y="728" font-family="Arial" font-size="9" fill="#333">Fault latch: pump overcurrent | level sensor timeout | float switch stuck</text>

  <!-- ===== PIN SUMMARY TABLE ===== -->
  <rect x="990" y="200" width="470" height="545" fill="#f8f8f8" stroke="#2a2a2a" stroke-width="1.5" rx="4"/>
  <text x="1000" y="220" font-family="Arial" font-size="12" font-weight="bold" fill="#2a2a2a">ESP32-C6 PIN ASSIGNMENT SUMMARY (v3)</text>

  <g font-family="Arial" font-size="9">
    <rect x="1000" y="230" width="450" height="22" fill="#1f3a5f"/>
    <text x="1010" y="245" fill="white" font-weight="bold">GPIO</text>
    <text x="1070" y="245" fill="white" font-weight="bold">Type</text>
    <text x="1130" y="245" fill="white" font-weight="bold">Signal</text>
    <text x="1280" y="245" fill="white" font-weight="bold">Component</text>

    <rect x="1000" y="252" width="450" height="22" fill="#ffffff"/>
    <text x="1010" y="266" font-family="Arial" font-size="9" font-weight="bold">GPIO2</text>
    <text x="1070" y="266" font-family="Arial" font-size="9">DI</text>
    <text x="1130" y="266" font-family="Arial" font-size="9">Cistern float</text>
    <text x="1280" y="266" font-family="Arial" font-size="9">Reed switch</text>
    <text x="1450" y="266" font-family="Arial" font-size="7" fill="#666666">10k pull-up</text>
    <rect x="1000" y="274" width="450" height="22" fill="#f4f4f4"/>
    <text x="1010" y="288" font-family="Arial" font-size="9" font-weight="bold">GPIO3</text>
    <text x="1070" y="288" font-family="Arial" font-size="9">DI</text>
    <text x="1130" y="288" font-family="Arial" font-size="9">Flow meter pulse</text>
    <text x="1280" y="288" font-family="Arial" font-size="9">YF-S201</text>
    <text x="1450" y="288" font-family="Arial" font-size="7" fill="#666666">10k pull-up</text>
    <rect x="1000" y="296" width="450" height="22" fill="#ffffff"/>
    <text x="1010" y="310" font-family="Arial" font-size="9" font-weight="bold">GPIO4</text>
    <text x="1070" y="310" font-family="Arial" font-size="9">DI</text>
    <text x="1130" y="310" font-family="Arial" font-size="9">Mode switch</text>
    <text x="1280" y="310" font-family="Arial" font-size="9">3-pos toggle</text>
    <text x="1450" y="310" font-family="Arial" font-size="7" fill="#666666">10k pull-up</text>
    <rect x="1000" y="318" width="450" height="22" fill="#f4f4f4"/>
    <text x="1010" y="332" font-family="Arial" font-size="9" font-weight="bold">GPIO5</text>
    <text x="1070" y="332" font-family="Arial" font-size="9">DI</text>
    <text x="1130" y="332" font-family="Arial" font-size="9">Manual button</text>
    <text x="1280" y="332" font-family="Arial" font-size="9">Momentary NO</text>
    <text x="1450" y="332" font-family="Arial" font-size="7" fill="#666666">10k pull-up</text>
    <rect x="1000" y="340" width="450" height="22" fill="#ffffff"/>
    <text x="1010" y="354" font-family="Arial" font-size="9" font-weight="bold">GPIO6</text>
    <text x="1070" y="354" font-family="Arial" font-size="9">IO</text>
    <text x="1130" y="354" font-family="Arial" font-size="9">I2C SDA</text>
    <text x="1280" y="354" font-family="Arial" font-size="9">OLED + DS3231</text>
    <text x="1450" y="354" font-family="Arial" font-size="7" fill="#666666">4.7k pull-up</text>
    <rect x="1000" y="362" width="450" height="22" fill="#f4f4f4"/>
    <text x="1010" y="376" font-family="Arial" font-size="9" font-weight="bold">GPIO7</text>
    <text x="1070" y="376" font-family="Arial" font-size="9">IO</text>
    <text x="1130" y="376" font-family="Arial" font-size="9">I2C SCL</text>
    <text x="1280" y="376" font-family="Arial" font-size="9">OLED + DS3231</text>
    <text x="1450" y="376" font-family="Arial" font-size="7" fill="#666666">4.7k pull-up</text>
    <rect x="1000" y="384" width="450" height="22" fill="#ffffff"/>
    <text x="1010" y="398" font-family="Arial" font-size="9" font-weight="bold">GPIO10</text>
    <text x="1070" y="398" font-family="Arial" font-size="9">DO</text>
    <text x="1130" y="398" font-family="Arial" font-size="9">Aviation Red PWM</text>
    <text x="1280" y="398" font-family="Arial" font-size="9">WW10A3SRQ4-N2</text>
    <text x="1450" y="398" font-family="Arial" font-size="7" fill="#666666">220R to 5V</text>
    <rect x="1000" y="406" width="450" height="22" fill="#f4f4f4"/>
    <text x="1010" y="420" font-family="Arial" font-size="9" font-weight="bold">GPIO11</text>
    <text x="1070" y="420" font-family="Arial" font-size="9">DO</text>
    <text x="1130" y="420" font-family="Arial" font-size="9">Aviation White PWM</text>
    <text x="1280" y="420" font-family="Arial" font-size="9">WW10A3SWQ4-N2</text>
    <text x="1450" y="420" font-family="Arial" font-size="7" fill="#666666">120R to 5V</text>
    <rect x="1000" y="428" width="450" height="22" fill="#ffffff"/>
    <text x="1010" y="442" font-family="Arial" font-size="9" font-weight="bold">GPIO12</text>
    <text x="1070" y="442" font-family="Arial" font-size="9">DO</text>
    <text x="1130" y="442" font-family="Arial" font-size="9">Aviation Blue PWM</text>
    <text x="1280" y="442" font-family="Arial" font-size="9">WW10A3SBQ4-N2</text>
    <text x="1450" y="442" font-family="Arial" font-size="7" fill="#666666">120R to 5V</text>
    <rect x="1000" y="450" width="450" height="22" fill="#f4f4f4"/>
    <text x="1010" y="464" font-family="Arial" font-size="9" font-weight="bold">GPIO13</text>
    <text x="1070" y="464" font-family="Arial" font-size="9">DO</text>
    <text x="1130" y="464" font-family="Arial" font-size="9">Aviation Orange PWM</text>
    <text x="1280" y="464" font-family="Arial" font-size="9">WW10A3OYF4-N2</text>
    <text x="1450" y="464" font-family="Arial" font-size="7" fill="#666666">220R to 5V</text>
    <rect x="1000" y="472" width="450" height="22" fill="#ffffff"/>
    <text x="1010" y="486" font-family="Arial" font-size="9" font-weight="bold">GPIO15</text>
    <text x="1070" y="486" font-family="Arial" font-size="9">DO</text>
    <text x="1130" y="486" font-family="Arial" font-size="9">BDD pump MOSFET</text>
    <text x="1280" y="486" font-family="Arial" font-size="9">AO3400A</text>
    <text x="1450" y="486" font-family="Arial" font-size="7" fill="#666666">10k pull-down</text>
    <rect x="1000" y="494" width="450" height="22" fill="#f4f4f4"/>
    <text x="1010" y="508" font-family="Arial" font-size="9" font-weight="bold">GPIO16</text>
    <text x="1070" y="508" font-family="Arial" font-size="9">DO</text>
    <text x="1130" y="508" font-family="Arial" font-size="9">Toilet RGB</text>
    <text x="1280" y="508" font-family="Arial" font-size="9">WS2812B 3mm</text>
    <text x="1450" y="508" font-family="Arial" font-size="7" fill="#666666">none (data)</text>
    <rect x="1000" y="516" width="450" height="22" fill="#ffffff"/>
    <text x="1010" y="530" font-family="Arial" font-size="9" font-weight="bold">GPIO18</text>
    <text x="1070" y="530" font-family="Arial" font-size="9">DO</text>
    <text x="1130" y="530" font-family="Arial" font-size="9">Well pump relay</text>
    <text x="1280" y="530" font-family="Arial" font-size="9">HL-52S</text>
    <text x="1450" y="530" font-family="Arial" font-size="7" fill="#666666">opto-isolated</text>
    <rect x="1000" y="538" width="450" height="22" fill="#f4f4f4"/>
    <text x="1010" y="552" font-family="Arial" font-size="9" font-weight="bold">GPIO20</text>
    <text x="1070" y="552" font-family="Arial" font-size="9">IO</text>
    <text x="1130" y="552" font-family="Arial" font-size="9">UART2 RX</text>
    <text x="1280" y="552" font-family="Arial" font-size="9">A02YYUW</text>
    <text x="1450" y="552" font-family="Arial" font-size="7" fill="#666666">--</text>
    <rect x="1000" y="560" width="450" height="22" fill="#ffffff"/>
    <text x="1010" y="574" font-family="Arial" font-size="9" font-weight="bold">GPIO21</text>
    <text x="1070" y="574" font-family="Arial" font-size="9">IO</text>
    <text x="1130" y="574" font-family="Arial" font-size="9">UART2 TX</text>
    <text x="1280" y="574" font-family="Arial" font-size="9">A02YYUW</text>
    <text x="1450" y="574" font-family="Arial" font-size="7" fill="#666666">--</text>
  </g>

  <!-- Title block -->
  <rect x="1140" y="700" width="320" height="120" fill="white" stroke="#2a2a2a" stroke-width="1.5"/>
  <line x1="1140" y1="728" x2="1460" y2="728" stroke="#2a2a2a"/>
  <line x1="1140" y1="748" x2="1460" y2="748" stroke="#2a2a2a"/>
  <line x1="1140" y1="768" x2="1460" y2="768" stroke="#2a2a2a"/>
  <line x1="1140" y1="788" x2="1460" y2="788" stroke="#2a2a2a"/>
  <line x1="1290" y1="700" x2="1290" y2="820" stroke="#2a2a2a"/>
  <line x1="1365" y1="700" x2="1365" y2="820" stroke="#2a2a2a"/>
  <text x="1148" y="716" font-family="Arial" font-size="9" font-weight="bold">Drawing D-03</text>
  <text x="1298" y="716" font-family="Arial" font-size="9" font-weight="bold">Rev 0.3</text>
  <text x="1373" y="716" font-family="Arial" font-size="9" font-weight="bold">2026-07-18</text>
  <text x="1148" y="739" font-family="Arial" font-size="8">ESP32-C6 IO Wiring</text>
  <text x="1298" y="739" font-family="Arial" font-size="8">Sheet 1 of 1</text>
  <text x="1373" y="739" font-family="Arial" font-size="8">Misha</text>
  <text x="1148" y="759" font-family="Arial" font-size="8">Scale 1:1 | Grid 5mm</text>
  <text x="1148" y="779" font-family="Arial" font-size="8">DAT-WATER-PLC-001 | v0.3-Misha</text>

  <!-- Legend -->
  <rect x="990" y="115" width="470" height="75" fill="#f8f8f8" stroke="#2a2a2a" stroke-width="1.5" rx="4"/>
  <text x="1000" y="133" font-family="Arial" font-size="10" font-weight="bold" fill="#2a2a2a">WIRE COLOR KEY</text>
  <line x1="1000" y1="140" x2="1460" y2="140" stroke="#2a2a2a" stroke-width="0.5"/>
  <line x1="1000" y1="155" x2="1060" y2="155" stroke="#CC0000" stroke-width="3"/>
  <text x="1070" y="158" font-family="Arial" font-size="8">+12V power</text>
  <line x1="1140" y1="155" x2="1200" y2="155" stroke="#FF8800" stroke-width="3"/>
  <text x="1210" y="158" font-family="Arial" font-size="8">+5V power</text>
  <line x1="1290" y1="155" x2="1350" y2="155" stroke="#FF6600" stroke-width="3"/>
  <text x="1360" y="158" font-family="Arial" font-size="8">+3.3V power</text>
  <line x1="1000" y1="172" x2="1060" y2="172" stroke="#0066CC" stroke-width="2"/>
  <text x="1070" y="175" font-family="Arial" font-size="8">Signal / GPIO</text>
  <line x1="1140" y1="172" x2="1200" y2="172" stroke="#993399" stroke-width="2"/>
  <text x="1210" y="175" font-family="Arial" font-size="8">I²C / NeoPixel</text>
  <line x1="1290" y1="172" x2="1350" y2="172" stroke="#333" stroke-width="2"/>
  <text x="1360" y="175" font-family="Arial" font-size="8">GND</text>
</svg>